# xmcd CD database file
#
# Track frame offsets:
#	150
#	20445
#	32931
#
# Disc length: 619 seconds
#
# Revision: 0
# Processed by: cddbd v1.4PL0 Copyright (c) Steve Scherf et al.
# Submitted via: CDex 1.40Release
#
DISCID=1d026903
DTITLE=TROY CASSAR DALEY - Born To Survive
DYEAR=2002
DGENRE=Country
TTITLE0=Born To Survive(4.30)~
TTITLE1=Think About You(2.46)~
TTITLE2=Sad Goodbye(3.00)~
EXTD=YEAR: 2002 ID3G: 2
EXTT0=
EXTT1=
EXTT2=
PLAYORDER=
